<?xml version="1.0" encoding="utf-8"?>
<!-- Generator: Adobe Illustrator 24.0.2, SVG Export Plug-In . SVG Version: 6.00 Build 0)  -->
<svg version="1.1" id="Layer_1" xmlns="http://www.w3.org/2000/svg" xmlns:xlink="http://www.w3.org/1999/xlink" x="0px" y="0px"
	 viewBox="0 0 275 50" style="enable-background:new 0 0 275 50;" xml:space="preserve">
<style type="text/css">
	.st0{fill-rule:evenodd;clip-rule:evenodd;fill:#004893;}
</style>
<g>
	<path class="st0" d="M85,0c-0.5,0-1,0.5-1,1v30.8c0,0.6,0.4,1,1,1h4.4c0.5,0,1-0.4,1-1l0-30.8c0-0.6-0.4-1-1-1H85"/>
	<path class="st0" d="M24.4,16.5c0-0.4,0-1,0-1.3c0-4.6-3.6-8.5-8.2-8.7c-0.2,0-2.7-0.1-3.9-0.1h0c-1.2,0-3.8,0.1-4,0.1
		c-4.5,0.2-8.2,4.1-8.2,8.7c0,0.4,0,1-0.1,1.3c0,0.1,0,2.5,0,3v0l0,0c0,0.6,0,2.9,0,3c0,0.4,0,1,0.1,1.3c0,4.6,3.6,8.5,8.2,8.7
		c0.2,0,2.7,0.1,4,0.1h1.6c0.5,0,0.9-0.5,1-1v-4.4c0,0,0,0,0,0v0c0-0.5-0.4-1-1-1c-0.7,0-1.5,0-1.7,0c-0.9,0-2.6,0-3.4-0.1
		c-1.3-0.1-2.3-1.2-2.3-2.5c-0.1-1.4-0.1-2.6-0.1-4.2c0-1.6,0-2.8,0.1-4.2c0-1.3,1-2.5,2.3-2.5c0.8-0.1,2.5-0.1,3.4-0.1
		c0.9,0,2.6,0,3.4,0.1c1.3,0.1,2.4,1.2,2.4,2.5c0.1,1.4,0.1,2.6,0.1,4.2c0,0.4,0,9.2,0,12.2c0,0.5,0.4,1,1,1h4.4c0.5,0,1-0.5,1-1
		c0,0,0,0,0,0l0,0c0-3.1,0-12,0-12.2l0,0v0C24.4,19,24.4,16.6,24.4,16.5"/>
	<path class="st0" d="M78.9,16.5c0-0.4,0-1,0-1.3c0-4.6-3.6-8.5-8.2-8.7c-0.2,0-2.7-0.1-3.9-0.1h0c-1.2,0-3.8,0.1-4,0.1
		c-4.5,0.2-8.2,4.1-8.2,8.7c0,0.4,0,1,0,1.3c0,0.1,0,2.5,0,3v0l0,0c0,0.6,0,2.9,0,3c0,0.4,0,1,0,1.3c0,4.6,3.6,8.5,8.2,8.7
		c0.2,0,2.7,0.1,4,0.1h1.6c0.5,0,1-0.5,1-1v-4.4c0,0,0,0,0,0v0c0-0.5-0.4-1-1-1c-0.7,0-1.5,0-1.7,0c-0.9,0-2.6,0-3.4-0.1
		C62,26.3,61,25.1,61,23.8c-0.1-1.4-0.1-2.6-0.1-4.2c0-1.6,0-2.8,0.1-4.2c0-1.3,1-2.5,2.4-2.5c0.8-0.1,2.5-0.1,3.4-0.1
		c0.9,0,2.6,0,3.4,0.1c1.3,0.1,2.4,1.2,2.4,2.5c0.1,1.4,0.1,2.6,0.1,4.2c0,0.4,0,9.2,0,12.2c0,0.5,0.4,1,1,1H78c0.5,0,1-0.5,1-1
		c0,0,0,0,0,0h0c0-3.1,0-12,0-12.2l0,0v0C79,19,78.9,16.6,78.9,16.5"/>
	<path class="st0" d="M104.3,12.8c0.8-0.1,2.5-0.1,3.4-0.1c0.9,0,2.6,0,3.4,0.1c1.3,0.1,2.4,1.2,2.4,2.5c0.1,1.4,0.1,2.6,0.1,4.2
		c0,1.6,0,2.8-0.1,4.2c0,1.3-1,2.5-2.4,2.5c-0.8,0.1-2.5,0.1-3.4,0.1c-0.9,0-2.6,0-3.4-0.1c-1.3-0.1-2.3-1.2-2.3-2.5
		c-0.1-1.4-0.1-2.6-0.1-4.2c0-1.6,0-2.8,0.1-4.2C101.9,14,103,12.9,104.3,12.8 M95.5,19.6L95.5,19.6c0,0.6,0,2.9,0,3
		c0,0.3,0,1,0,1.3c0,4.6,3.6,8.5,8.2,8.7c0.2,0,2.7,0.1,3.9,0.1h0c1.2,0,3.7-0.1,3.9-0.1c4.5-0.2,8.2-4.1,8.2-8.7c0-0.4,0-1,0.1-1.3
		c0-0.1,0-2.5,0-3l0,0l0,0c0-0.6,0-2.9,0-3c0-0.4,0-1-0.1-1.3c0-4.6-3.6-8.5-8.2-8.7c-0.2,0-2.7-0.1-3.9-0.1h0
		c-1.2,0-3.7,0.1-3.9,0.1c-4.6,0.2-8.2,4.1-8.2,8.7c0,0.4,0,1,0,1.3C95.5,16.6,95.5,19,95.5,19.6L95.5,19.6z"/>
	<path class="st0" d="M148.7,16.5c0-0.4,0-1-0.1-1.3c0-4.6-3.6-8.5-8.2-8.7c-0.2,0-2.7-0.1-3.9-0.1h0c-1.2,0-3.7,0.1-3.9,0.1
		c-4.5,0.2-8.2,4.1-8.2,8.7c0,0.4,0,1,0,1.3c0,0.1,0,2.5,0,3v0l0,0c0,0.6,0,2.9,0,3c0,0.4,0,1,0,1.3c0,4.6,3.6,8.5,8.2,8.7
		c0.2,0,2.7,0.1,3.9,0.1h1.6c0.5,0,1-0.5,1-1l0-4.4c0,0,0,0,0,0v0c0-0.5-0.4-1-1-1c-0.7,0-1.5,0-1.7,0c-0.9,0-2.6,0-3.4-0.1
		c-1.3-0.1-2.4-1.2-2.4-2.5c-0.1-1.4-0.1-2.6-0.1-4.2c0-1.6,0-2.8,0.1-4.2c0-1.3,1-2.5,2.4-2.5c0.8-0.1,2.5-0.1,3.4-0.1
		c0.9,0,2.6,0,3.4,0.1c1.3,0.1,2.4,1.2,2.4,2.5c0.1,1.4,0.1,2.7,0.1,4.2c0,0.4,0,15.6,0,18.6c0,0.5,0.4,1,1,1h4.4c0.5,0,1-0.5,1-1v0
		h0c0-3.1,0-18.4,0-18.6l0,0v0C148.8,19,148.7,16.6,148.7,16.5"/>
	<path class="st0" d="M51.6,6.7c-0.4,0-4.6,0-4.6,0c-0.6,0-1.1,0.2-1.3,0.7l-6.1,16.5L33.4,7.3c-0.2-0.5-0.7-0.7-1.3-0.7
		c0,0-4.2,0-4.6,0c-0.4,0-1,0.4-0.7,1.3l9.8,24.2c0.2,0.4,0.5,0.6,0.9,0.6h3.9c0.4,0,0.8-0.2,0.9-0.6L52.2,8
		C52.6,7.1,52,6.7,51.6,6.7"/>
</g>
<g>
	<path d="M6.4,47.7H5.7c-0.1,0-0.2-0.1-0.2-0.2L4.8,45h-3l-0.7,2.6c0,0.1-0.1,0.2-0.2,0.2H0.2c-0.1,0-0.2-0.1-0.2-0.2v-0.1l2.1-7.4
		c0.2-0.7,0.7-0.8,1.2-0.8c0.4,0,1,0.2,1.1,0.8l2.1,7.4v0.1C6.6,47.7,6.5,47.7,6.4,47.7L6.4,47.7z M3.5,40.3c0-0.1-0.1-0.2-0.2-0.2
		c-0.1,0-0.2,0.1-0.2,0.2L2,44.1h2.5L3.5,40.3z M12.2,47.7h-0.5c-0.1,0-0.2-0.1-0.2-0.2v-3.7c0-1.1-0.4-1.5-1.3-1.5
		c-0.5,0-1,0.2-1.5,0.4v4.8c0,0.1-0.1,0.2-0.2,0.2H7.8c-0.1,0-0.2-0.1-0.2-0.2v-5.8c0-0.1,0.1-0.2,0.2-0.2h0.6
		c0.1,0,0.2,0.1,0.2,0.2v0.2c0.6-0.4,1.1-0.5,1.8-0.5c1.4,0,2,0.8,2,2.4v3.7C12.4,47.6,12.3,47.7,12.2,47.7z M22.5,47.7h-0.7
		c-0.2,0-0.3-0.1-0.4-0.2l-3.5-6.7c0,0,0,0,0,0v6.7c0,0.1-0.1,0.2-0.2,0.2h-0.6c-0.1,0-0.2,0-0.2-0.1v-8c0-0.2,0.1-0.3,0.3-0.3h0.6
		c0.3,0,0.4,0.1,0.5,0.2l3.5,6.6l0,0v-6.7c0-0.1,0.1-0.2,0.2-0.2h0.6c0.1,0,0.2,0.1,0.2,0.2v7.9C22.8,47.6,22.7,47.7,22.5,47.7
		L22.5,47.7z M29.2,47.7c-0.4,0.1-1.6,0.1-2.2,0.1c-1.6,0-2.4-0.6-2.4-2.1v-4.4c0-1.5,0.8-2.1,2.4-2.1c0.7,0,1.7,0,2.2,0.1
		c0.1,0,0.1,0.1,0.1,0.2V40c0,0.1-0.1,0.1-0.1,0.1H27c-1.2,0-1.4,0.3-1.4,1.2v1.6h3.5c0.1,0,0.2,0.1,0.2,0.2v0.4
		c0,0.1-0.1,0.2-0.2,0.2h-3.5v1.9c0,0.8,0.2,1.2,1.4,1.2h2.2c0.1,0,0.1,0.1,0.1,0.1v0.6C29.3,47.7,29.3,47.7,29.2,47.7z M35.6,47.7
		c-0.5,0.1-0.9,0.1-1.9,0.1c-1.4,0-3-0.7-3-3.5v-1.6c0-2.8,1.6-3.5,3-3.5c0.7,0,1.4,0.1,1.9,0.2c0.1,0,0.2,0.1,0.2,0.1v0.6
		c0,0.1,0,0.1-0.1,0.1h0c-0.4,0-1.3-0.1-1.9-0.1c-1.1,0-2,0.6-2,2.6v1.6c0,1.9,0.8,2.6,2,2.6c0.6,0,1.5-0.1,1.9-0.1h0.1
		c0.1,0,0.2,0.1,0.2,0.2v0.5C35.8,47.6,35.7,47.6,35.6,47.7L35.6,47.7z M44.6,47.7c-0.5,0.1-0.9,0.1-1.9,0.1c-1.4,0-3-0.7-3-3.5
		v-1.6c0-2.8,1.6-3.5,3-3.5c0.7,0,1.4,0.1,1.9,0.2c0.1,0,0.2,0.1,0.2,0.1v0.6c0,0.1,0,0.1-0.1,0.1h0c-0.4,0-1.3-0.1-1.9-0.1
		c-1.1,0-2,0.6-2,2.6v1.6c0,1.9,0.8,2.6,2,2.6c0.6,0,1.5-0.1,1.9-0.1h0.1c0.1,0,0.2,0.1,0.2,0.2v0.5C44.8,47.6,44.7,47.6,44.6,47.7
		L44.6,47.7z M48.2,47.8c-1.7,0-2.5-1.1-2.5-2.8v-0.8c0-1.7,0.8-2.8,2.5-2.8s2.5,1.1,2.5,2.8v0.8C50.7,46.7,49.8,47.8,48.2,47.8z
		 M49.7,44.2c0-1.2-0.5-1.9-1.5-1.9s-1.5,0.7-1.5,1.9V45c0,1.2,0.5,1.9,1.5,1.9s1.5-0.7,1.5-1.9V44.2z M59.3,47.7h-0.5
		c-0.1,0-0.2-0.1-0.2-0.2v-4c0-1-0.4-1.2-1.1-1.2c-0.4,0-0.9,0.1-1.3,0.3c0.1,0.3,0.1,0.5,0.1,0.9v4c0,0.1-0.1,0.2-0.2,0.2h-0.6
		c-0.1,0-0.2-0.1-0.2-0.2v-4c0-1-0.3-1.2-0.9-1.2c-0.4,0-0.9,0.2-1.4,0.4v4.8c0,0.1-0.1,0.2-0.2,0.2h-0.6c-0.1,0-0.2-0.1-0.2-0.2
		v-5.8c0-0.1,0.1-0.2,0.2-0.2h0.6c0.1,0,0.2,0.1,0.2,0.2v0.2c0.5-0.3,1.1-0.5,1.6-0.5c0.5,0,0.8,0.1,1.1,0.5
		c0.6-0.3,1.3-0.5,1.9-0.5c1,0,1.8,0.5,1.8,2.1v4C59.5,47.6,59.4,47.7,59.3,47.7L59.3,47.7z M63.4,47.8c-0.4,0-0.9-0.1-1.3-0.1v2.1
		c0,0.1-0.1,0.2-0.2,0.2h-0.6c-0.1,0-0.2-0.1-0.2-0.2V42c0-0.1,0-0.2,0.2-0.3c0.6-0.1,1.4-0.3,2.1-0.3c1.7,0,2.5,1.1,2.5,2.8v0.8
		C65.9,46.8,65.1,47.8,63.4,47.8L63.4,47.8z M64.9,44.2c0-1.2-0.4-2-1.5-2c-0.5,0-1,0.1-1.3,0.1v4.5c0.4,0.1,1,0.1,1.3,0.1
		c1.1,0,1.5-0.7,1.5-2V44.2z M71.4,47.7h-0.5c-0.1,0-0.2-0.1-0.2-0.2v-0.3c-0.5,0.3-1.1,0.6-1.7,0.6c-1,0-1.8-0.4-1.8-1.8v-0.1
		c0-1.2,0.7-1.8,2.8-1.8h0.8v-0.5c0-1-0.3-1.3-1.2-1.3c-0.7,0-1.3,0.1-1.7,0.1h-0.1c-0.1,0-0.2,0-0.2-0.2v-0.4
		c0-0.1,0.1-0.2,0.2-0.2c0.5-0.1,1-0.1,1.8-0.1c1.6,0,2.2,0.8,2.2,2.1v4C71.6,47.6,71.5,47.7,71.4,47.7L71.4,47.7z M70.6,44.7h-0.8
		c-1.4,0-1.7,0.3-1.7,1.1V46c0,0.8,0.4,1.1,1.1,1.1c0.5,0,1-0.2,1.5-0.5L70.6,44.7L70.6,44.7z M77.7,47.7h-0.5
		c-0.1,0-0.2-0.1-0.2-0.2v-3.7c0-1.1-0.4-1.5-1.3-1.5c-0.5,0-1,0.2-1.5,0.4v4.8c0,0.1-0.1,0.2-0.2,0.2h-0.6c-0.1,0-0.2-0.1-0.2-0.2
		v-5.8c0-0.1,0.1-0.2,0.2-0.2h0.6c0.1,0,0.2,0.1,0.2,0.2v0.2c0.6-0.4,1.1-0.5,1.8-0.5c1.4,0,2,0.8,2,2.4v3.7
		C77.9,47.6,77.8,47.7,77.7,47.7z M84,41.8l-1.9,6.6c-0.4,1.2-0.8,1.7-2.1,1.7c-0.3,0-0.7-0.1-1-0.1c-0.1,0-0.2-0.1-0.2-0.2v-0.4
		c0-0.1,0.1-0.2,0.2-0.2h0c0.3,0,0.8,0.1,1,0.1c0.6,0,0.9-0.2,1.1-1l0.1-0.5h-0.2c-0.4,0-0.6-0.1-0.8-0.8l-1.5-5.2c0,0,0-0.1,0-0.1
		c0-0.1,0.1-0.2,0.2-0.2h0.6c0.1,0,0.2,0.1,0.2,0.2l1.3,4.9c0.1,0.2,0.1,0.3,0.2,0.3h0.2l1.4-5.2c0-0.1,0.1-0.2,0.2-0.2h0.6
		c0.1,0,0.2,0.1,0.2,0.2C84.1,41.7,84.1,41.7,84,41.8L84,41.8z"/>
</g>
</svg>
